<svg width="331" height="201" viewBox="0 0 331 201" fill="none" xmlns="http://www.w3.org/2000/svg">
<path d="M16 131.5L20.5 127.5L25 123.5L29.5 120.5L33 117" stroke="#FE00BE" stroke-width="3" stroke-linecap="round"/>
<path d="M2 80C15 78.5 14.654 82.4497 21 84.5L29 88L36 90" stroke="#FE00BE" stroke-width="3" stroke-linecap="round"/>
<path d="M4.5 105.5H11.5L17.5 104H25L30 103" stroke="#FE00BE" stroke-width="3" stroke-linecap="round"/>
<path d="M130.5 66.5L131 68.5H132H133L134 68V66L133.5 64.5L132 63.5L131 64.5L130.5 66.5Z" fill="#FE00BE" stroke="#FE00BE" stroke-opacity="0.1" stroke-width="2" stroke-miterlimit="3.15155" stroke-linejoin="round"/>
<path d="M97 65H99.5H101H102.5H105L105.5 63.5L106 63H107H108.5H110H112H114.5L115.5 62.5L117 61.5L118 60.5V59.5L118.5 58L119.5 56.5L120 55L120.5 54L121.5 52.5L122 51V50L122.5 49.5L123.5 48L124.5 47.5L125 47L126 46.5L126.5 45.5V44L127.5 42.5L128 41.5V40.5V39V37.5V35.5L128.5 33.5V33L129 31.5L129.5 30.5L130 28.5L130.5 28L131.5 27.5H132L133.5 28L134.5 28.5L135.5 29.5L136 31L137 33L138 34.5L139 37L140 38C140.167 38.3333 140.5 39.1 140.5 39.5C140.5 40 141.5 40 141.5 40.5C141.5 40.9 142.167 41 142.5 41H143H144.5L145 40.5L146 39L146.5 38L147 36.5V35.5L149 33L150 32L150.5 30L151 28V26.5L152.5 24.5V23L153 21.5V20V18L153.5 17.5L154.5 17H155.5L156.5 17.5L157.5 18L158.5 19L159 20L160 21L160.5 23.5L161 24.5L162 26.5L162.5 27.5L163 29.5L163.5 31L164 32.5L164.5 34.5V36V38.5L164 40.5V42.5L163.5 43L164 44.5L164.5 45.5V46.5L165 47.5V48.5V49.5V51.5L165.5 53L166 54L166.5 56L167 58V59.5V61V62V63.5L167.5 65L168 66L168.5 67L169.5 68L171 69L172.5 69.5L173.5 70L175 71.5L176.5 72.5L177.5 73L179 74C179.167 74.1667 179.6 74.5 180 74.5C180.4 74.5 181.167 75.1667 181.5 75.5L183 77L184.5 77.5L188 79.5L189 80L191.5 80.5C192 80.5 193.1 80.5 193.5 80.5C194 80.5 195 80.5 195.5 80.5C196 80.5 197 80.5 197.5 80.5C198 80.5 199.5 80.5 200 80.5C200.5 80.5 202 81 202.5 81C202.9 81 203.667 81 204 81L206.5 81.5L209.5 82L211 82.5L214 83L216 83.5H219.5H221H222.5L224 83L225.5 82.5L228.5 82L232 81.5L235 80.5L238 79C238.5 79 239.6 78.9 240 78.5C240.5 78 243.5 78.5 244 78.5C244.4 78.5 245.833 78.5 246.5 78.5C247.333 78.8333 249.1 79.5 249.5 79.5C249.9 79.5 250.667 79.8333 251 80L254 81L256.5 82L261.5 83H266.5H270H274H276.5H279L282 82.5C282.5 82.5 283.6 82.5 284 82.5C284.4 82.5 285.5 82.5 286 82.5L289 82C289.667 82 291.1 82 291.5 82C292 82 292.5 81.5 293 81.5C293.4 81.5 294.5 81.5 295 81.5L297 81L299.5 80L301 78.5L302.5 77.5L303.5 76.5L304 75.5L304.5 74L305 72V69V68C305 67.5 305 66.4 305 66C305 65.6 305 64.8333 305 64.5V63.5L305.5 62.5L306.5 61L307.5 60L308 58.5L309 56.5L310.5 54.5L311 52.5L312 51L312.5 49.5L313 47.5C313.333 46.8333 314 45.4 314 45C314 44.6 314.333 43.5 314.5 43L315 41V39V37.5L315.5 35L316 33.5L316.5 32.5L317 31L318 30L318.5 29L319 28.5V27.5V26.5V25L319.5 23V21V18.5V17V14.5L319 13V11.5V10V7.5L319.5 6.5V5L320 4L320.5 3L321 2L321.5 1L322.5 1.5L323 2.5V4.5V6L323.5 8.5L324.5 11L325.5 14L326 15L326.5 17L327 19.5V21.5L328 23.5V26C328.167 26.5 328.5 27.6 328.5 28C328.5 28.5 329 29.5 329 30C329 30.4 329.333 31.1667 329.5 31.5V32.5L330 34.5V36.5V38.5V41L329.5 42.5V45.5L330 47V48V50V51V52.5V55L330.5 57V58V59.5L330 61.5V62.5L329.5 64V64.5L328.5 66L328 67L327 68L326.5 69.5L326 70.5L324.5 71.5L323 72.5L322 73L321 74.5L320 75.5L319 76.5L318 78.5L317.5 79.5L317 81L316.5 82.5L316 84V85L315.5 86L315 88L314.5 89V90L314 91.5L313.5 92.5L313 93.5L312.5 95.5L312 96.5V97.5V99.5V101L311.5 103V103.5C311.167 103.833 310.4 104.6 310 105C309.6 105.4 309.5 105.833 309.5 106L309 108L309.5 109.5V110.5V111.5L310 112.5L310.5 113.5L312 115L313 115.5L313.5 116.5L314.5 117.5L315 118V119V119.5L314.5 121V122L314 123L313 124.5L312 126L311 126.5L310 127.5L309.5 128V129.5C309.5 130 309.5 131.1 309.5 131.5C309.5 132 309.5 132.5 309 133C308.6 133.4 308.833 134.5 309 135C309 135.5 309 136.6 309 137C309 137.4 309.333 137.833 309.5 138L310.5 139.5V140.5L311 142.5V143.5L311.5 145L312 147V148L312.5 150L313 152V153.5L313.5 155V156L314 157.5L314.5 159.5L315 161V162V164.5C315 165 315 166.1 315 166.5C315 166.9 315 167.667 315 168L315.5 169.5L316 170L316.5 171V172V173.5L317 175V176.5V179V180.5V182.5L316.5 184.5L316 186L315 187.5L314.5 189.5L313.5 190.5L313 191.5H311.5L310.5 192L308.5 191.5L307 191L305.5 190.5L304.5 189L304 188L303.5 186.5L303 185L302.5 184L302 182.5L301.5 182L301 180V178.5V176.5V174.5L300.5 172V170.5V168V165.5L300 163.5V161.5L299.5 160L299 159L298.5 157C298.5 156.667 298.4 155.8 298 155C297.5 154 298 153.5 297.5 153C297.1 152.6 297 151.5 297 151L296.5 149.5C296.5 148.833 296.5 147.4 296.5 147C296.5 146.6 296.167 145.833 296 145.5L295.5 144L295 143L293 142.5H292.5L291.5 143L291 143.5V144.5V145.5L290.5 147L291 148.5L292 149L292.5 151C292.5 151.5 292.5 152.6 292.5 153C292.5 153.4 292.5 154.5 292.5 155V157L293.5 159.5V162.5L293 165L292 167L291.5 169L291 171L290.5 173L289.5 175L289 177L288 179L286.5 181C286.333 181.5 285.9 182.6 285.5 183C285.1 183.4 284.667 184.5 284.5 185L283.5 186L282 187.5L281.5 189L280 190L279 191L278.5 191.5H277H276L275.5 191L275 190.5L274.5 189.5V187.5L273.5 186L273 184.5L272.5 183V181.5V179.5V178V176.5V175L272 173V171V169.5L272.5 167.5L273 166.5C273.167 166 273.5 164.8 273.5 164C273.5 163.2 273.5 162.667 273.5 162.5L274 160.5V159V157V154.5L273.5 152.5L273 151L272 150L271 149H270H268H266H264.5L263.5 150L262.5 151L261 152L259.5 152.5L258.5 153.5L258 154L256.5 154.5L256 155L254.5 155.5L253 156L252 156.5H250H248.5L246 156L244.5 155.5L243.5 155L242.5 154.5L241.5 153.5L241 152L240.5 151.5L239.5 150L239 149L238 147.5L237 146.5L236 146L235 145.5L234 145L233 144L232.5 143L231.5 142L230.5 141L229.5 140L228.5 139H227H226L225.5 140L225 141V142V143V145L224.5 146V148.5V150L224 151.5L223 154.5L222.5 155.5L221.5 157L221 158.5V161V163.5V165V168V170V171.5V173.5L220.5 175V176L220 177L219.5 178.5L219 180.5V182V183.5V184.5L218.5 186L218 187L217.5 188.5L217 190L216.5 191.5L216 193L215.5 193.5L215 194.5L214 195.5L213.5 196L212.5 197L212 198L211 198.5L210.5 199.5L209.5 200H209H208L207 199.5L206 199V198.5V197V196L205.5 195L205 193.5V192L204.5 190.5V189.5V187V185.5V184.5L204 183.5L203.5 183L203 182L202.5 181V179.5V177.5V173.5V165.5C202.5 164.667 202.5 162.9 202.5 162.5C202.5 162.1 202.5 161 202.5 160.5V158.5V157.5L202 156.5L201.5 156L201 155.5L200.5 155V153.5V151.5V150V148.5L200 147.5L199.5 146.5L199 145.5L198.5 145H197.5H197H196.5L196 145.5V146.5V147.5V150.5V156.5V161V163V164.5V165.5V166.5L195.5 167.5L195 168.5L194 169.5L193.5 170.5L193 171.5L192.5 172V173L192 174L191.5 174.5L191 175.5L190.5 176V177V178V179V180.5V182V183.5V186.5L190 188.5L189.5 190L189 191L188 191.5L187.5 192H187H186.5L185.5 191.5L184 190L183 188.5L182 187.5L181.5 186V184.5V182.5V180.5V177.5V176V174V171.5V169V166.5V165V163V161L181 159.5V158.5L180.5 157.5L180 157H179H178.5L178 157.5L177.5 158.5L177 160L176.5 161.5L176 162.5L175.5 165L175 167L174.5 169.5V171.5L174 174L172.5 177L171.5 180L170.5 182.5L170 184L169.5 186L168.5 189.5L167.5 191.5L167 192L166 193L165.5 194H164.5H163.5H162L160.5 193.5L160 192.5L159.5 191L159 188.5V186.5L158.5 183V179V177L159 175L160 174L161 173L161.5 171.5L162 170.5L163 169.5L163.5 168.5V167L163 165V163V160.5V158V156.5V154.5V152V151L162.5 149.5L162 148L161.5 147L161 146V142V140.5V138.5V137.5V136.5V134.5V133.5L160.5 132.5L159.5 131L158.5 130L158 129L157 128L156.5 127.5L155 126L154 125L153 124L151.5 123.5L150 122.5L149 122H147H146H144L142.5 121.5L141 121L139.5 120.5H137.5H136.5H135H133.5L131.5 120H130.5H129.5H128L126.5 119L125.5 118.5L124.5 118H123.5L122.5 117.5L121.5 117L120.5 116L119.5 115L118.5 114L117.5 113L116.5 112.5H115.5L114.5 113L113.5 113.5L112.5 114H111L109.5 114.5L108.5 115L107.5 115.5L107 116H105.5L104.5 116.5H103.5H101.5H100H98.5H97L96 116V115L95 114H93.5H92.5L91.5 114.5L91 115L90.5 116L90 116.5L89.5 117L88.5 117.5L87.5 118L86 118.5L85 119H83.5H82H81L80 118.5H79.5L78.5 118L78 117.5L77.5 116.5L77 115.5V114.5V114V113V112.5L77.5 112L78 111.5L79 110.5L80 110L82 109.5H83.5H84.5H85.5H86.5H87.5H88.5L89.5 109L90.5 108.5L91.5 108L93 107.5V107L93.5 106L94.5 105.5L95.5 104.5L96 104H97L98 103.5L99 103L99.5 102L100 101.5L100.5 100.5L101.5 100L102.5 99.5L103 99L104 98.5H105L106 98H107.5L109 97.5H110H111L111.5 97L112 96V94.5V93.5V92L111.5 91V89.5L111 89L110 88.5L109 88L107.5 87.5L107 87L106 86.5L105.5 85.5L104.5 85H103.5H102.5H101.5L100.5 85.5L100 86L99 87L98.5 87.5L98 89V89.5L97.5 90L97 90.5L96.5 91L96 91.5H95H94L93.5 90.5L93 90L92.5 89.5L91.5 89L91 88.5L90.5 87.5L89.5 86L89 85L88 84L87.5 83.5L87 83H86H84.5L83.5 83.5V84L82.5 85L82 85.5L81.5 86.5L80.5 87.5L79.5 88L79 89L78.5 89.5L78 90.5L77.5 91H76.5H76L75.5 90.5L75 90V89V88V86.5V85.5V83V81.5V80V78.5V77.5V76V75V74L74.5 73L74 72.5L73.5 72L73 70.5V68.5L73.5 67L74.5 65.5L76 65H78.5M97 65H91M97 65H95H94H92.5H91M97 65H98.25H95.5H96H97ZM91 65H84.5M91 65H89H87H85.5H84.5M84.5 65H78.5M84.5 65H82.5H80.5H79.5H78.5" stroke="#FE00BE" stroke-linejoin="round"/>
<path d="M103.5 66H105L105.5 65L106 63.5H107.5H112H114.5L115.5 63L117 62L118.5 61V60L119 58L120 56.5L121 54.5L122 52.5L122.5 50.5L124 48.5L125.5 47.5L126.5 47L127 46V45L127.5 43L128.5 41.5V39V36.5L129 33.5L129.5 31L130.5 29.5L131 28.5L132 28L133 28.5H134L135 30L136 32L137 34L138 35.5L139 37.5L139.5 39L140.5 40L142 41.5H145L146 40.5L146.5 39L147 36.5L148 35L150 32.5L151 31L151.5 28.5V26.5L153 25L153.5 23.5V22V20V18L154.5 17.5L156.5 18L158 19.5L159.5 20.5L160 23L160.5 24L161.5 26.5L162.5 29L163 31.5L164 34.5V36V38.5L163.5 40L163 42V43.5L163.5 44.5L164 46.5L164.5 48V49.5L165 52.5L165.5 55L166.5 57.5V60.5V64L167.5 66.5L169.5 68.5L172 70L173.5 70.5L176.5 73L179.5 74.5L182.5 77L184.5 78.5C185.5 79 187.6 80 188 80C188.4 80 190.167 80.6667 191 81H194.5H198L201.5 81.5H205L210 82.5L215 83.5C215.833 83.6667 217.6 84 218 84H221L224 83.5L227 83L230.5 82.5L232.5 82L236.5 80.5L239.5 79H241.5H244H246L248.5 80L250 80.5L254 81.5L256 82L259 83L261.5 83.5H263.5H268.5H273H277L280 83H282.5H285.5L288.5 82.5H291.5L293.5 82L295.5 81.5L299 81L300 80L301 79.5L302.5 78.5L304 76L305 74.5L305.5 71.5V65.5V63.5L307 61.5L308 60L309 57.5L310.5 55.5L311.5 54L312 52.5L312.5 51L313.5 48L314.5 45.5L315 43.5L315.5 41.5V40V38L316 36L316.5 33.5L317 32L318.5 30.5L319 30L319.5 29V25.5L320 23V14.5L319.5 13V11V9L320 7.5V6.5V6L320.5 4.5L321 3.5L322 2L322.5 2.5V3.5V5.5V7.5L324 11L325 13.5L326 16.5L326.5 19.5V22L327.5 23V24V25.5L328 27V28.5L328.5 30L329 32.5L329.5 34V36V38V39.5L329 41.5V43V45L329.5 46.5V48.5V52V55L330 57L329.5 59.5V61.5L329 63L328.5 65L327 67L325.5 70L323.5 71L321.5 72.5L321 74L318.5 76L316.5 80.5L316 82.5L315.5 83.5V85.5L314.5 87.5L314 89.5V90.5L312.5 93L311.5 96.5V100L311 103L310.5 103.5L309.5 104.5L309 105.5V106.5L308.5 108L309 109.5V111.5L310 114L311 114.5L312 115.5L313 116.5L313.5 117L314.5 118V119L314 121L313.5 123L312.5 125L310.5 126L309 127.5V128.5V130L309.5 131.5L308.5 132.5L308 133.5L308.5 135V136.5L310 139V140V141L310.5 142.5V144L311.5 146L312 149V150L312.5 151.5V152.5V153.5L313 154.5V155.5V156.5L313.5 158.5L314.5 160.5V162V165.5V168L315 169L315.5 170.5L316 171.5V173V174L316.5 176V178V180.5V182.5L316 183.5L315.5 185L314.5 186.5V188L314 189L313.5 190L312 191H310H309L307 190.5L306 190L305 189L304.5 187.5L304 186L302.5 183L301.5 180V174.5L301 172V167.5V165.5V164L300.5 162V160.5L299.5 159L299 158V156.5L298.5 155V153.5L298 152.5L297.5 151L297 149.5V147L296.5 145L295.5 143.5L295 142.5L294 142H293H292L291 142.5L290.5 143.5V145L290 147V148L291 149L292 150.5V156.5V158L293 159.5V161.5V163L292.5 164.5L291.5 167L290.5 170.5L289.5 174.5L289 175.5L288.5 177L287.5 178.5L286 181L284 184.5L283 186L282 187L281 188.5L280 189.5L279.5 190L278.5 191H276L275 189.5V187L274 185.5L273 183.5V177V175L272.5 172.5V170L273 168L274 165V162.5C274 162.1 274.333 161.667 274.5 161.5V159V155L273.5 151L271.5 148.5H264L261.5 151L260 152L259 152.5L257.5 153.5L256 154.5L251.5 156H249.5L247.5 155.5L244 155L242 153L241.5 152L240 149.5L238.5 147L237 146L236 145L234 144L233 143L232.5 142L230.5 140L229.5 139L228.5 138.5H227H226L225 139L224.5 141.5V144.5L224 146V150L222 155L221 156.5L220.5 158.5V170.5V173L220 174V175V176L219 177.5L218.5 180.5V182.5V184L217.5 186L216.5 189L216 191.5L215.5 193L214.5 194.5L213 195.5L211.5 197L210.5 198V199L209 199.5L206.5 198.5V196L206 194.5L205.5 192L205 190.5V185V184L204 183L203 181V160.5V157.5L202.5 156.5L201 155V148.5L200.5 147L199.5 145.5L198.5 144.5H197H196L195.5 145.252V165.5L195 166.5L194.5 168L193.5 169L193 170L192.5 171L192 172V172.5L191.5 173.5L191 174L190.5 175L190 176V177V179.5V182V184V186L189.5 188.5L189 190L188 191L186.5 191.5L184.5 189.5L183.5 188L182.5 187L182 185V181V174.5V171V169.5V165V162.5V160L181.5 158.5L180.5 157L180 156.5H179H178L177 158L176.5 160L175.5 162.5L174.5 166.5L174 168.5V170V171.5L173.5 173.5L173 174L172 177L169.5 183.5L169 185.5L168.5 187.5L168 188.5L167 190.5L166.5 191.5L165.5 192.5L164.5 193.5H163H162L160.5 192.5L160 190L159.5 188.5V186.5V185L159 184V182V180V178V176L160 175L161 173.5L162 172.5L162.5 171L163.5 170L164 169V167.5V166.5L163.5 164V159.5V156V153.5V150.5L163 148.5L162.5 147.5L161.5 146V143.5V141V138.5L162 136L161.5 133.5L161 132.5L160.5 131.5L159 130L158.5 129L156.5 126.5L154.5 124.5L153.5 123.5L152 123L149.5 121.5H144L139.5 120H138H135.5H134C133.5 119.833 132.4 119.5 132 119.5H130H129L127 118.5L125 117.5H123.5L121 115.5L119.5 114.5L118 112.5L116.5 112H115L114 112.5L112.5 113.5H110.5L109 114L107.5 115L107 115.5H105.5L104.5 116H102.5H99H97.5L96.5 115.5V114.5L96 114L95 113.5H93L91.5 114L90.5 115L89.5 116L87.5 117L86 118L84.5 118.5H81.5L80 118L78.5 117L77.5 115.5V113.5V112.5L78.5 112L79.5 111L82 110H83.5H86H88L89.5 109.5L90.5 109L92.5 108L93.5 107.5V107L94 106.5L95.5 105.5L96.5 104.5L98 104L99.5 103.5L100 102.5L100.5 101L102.5 100L103 99.5L104 99H105L106 98.5H107.5L109 98H111L112 97.5L112.5 96V92L112 91V89.5L111.5 89L111 88.5L110 88L109 87.5L108 87L107.5 86.5L106.5 86L106 85L104.5 84.5H103L100.5 85L99 86L98 87L97.5 88.5V89.5L96.5 90.5L96 91H95L94 90.5L93.5 90L92.5 89L91.5 88.5L90 86L89 84.5L87.5 83L85.5 82.5H84L83 83.5L82.5 84L81.5 85L81 86L80 87.5L79.5 88L78.5 88.5L78 89.5L77.5 90.5H77H76L75.5 89.5V81.5V80V78.5V76.5V75V74L75 73V72.5L74.5 72L74 71.5V71V70L73.5 69L74 68V67.5L74.5 66.5L75 66H76H77.5H79H80H82.5H84.5H86H87.5H89.5H91H93H95H96.5H98.5H100.5H102H103.5Z" stroke="#FE00BE" stroke-width="2" stroke-linejoin="round"/>
</svg>
