<svg width="340" height="211" viewBox="0 0 340 211" fill="none" xmlns="http://www.w3.org/2000/svg">
<g filter="url(#filter0_d_1003_34)">
<path d="M20 136.5L24.5 132.5L29 128.5L33.5 125.5L37 122" stroke="#FE00BE" stroke-width="3" stroke-linecap="round"/>
</g>
<g filter="url(#filter1_d_1003_34)">
<path d="M6 85C19 83.5 18.654 87.4497 25 89.5L33 93L40 95" stroke="#FE00BE" stroke-width="3" stroke-linecap="round"/>
</g>
<g filter="url(#filter2_d_1003_34)">
<path d="M8.5 110.5H15.5L21.5 109H29L34 108" stroke="#FE00BE" stroke-width="3" stroke-linecap="round"/>
</g>
<g filter="url(#filter3_d_1003_34)">
<path d="M134.5 71.5L135 73.5H136H137L138 73V71L137.5 69.5L136 68.5L135 69.5L134.5 71.5Z" fill="#FE00BE"/>
<path d="M134.5 71.5L135 73.5H136H137L138 73V71L137.5 69.5L136 68.5L135 69.5L134.5 71.5Z" stroke="#FE00BE" stroke-opacity="0.1" stroke-width="2" stroke-miterlimit="3.15155" stroke-linejoin="round"/>
</g>
<g filter="url(#filter4_d_1003_34)">
<path d="M101 70H103.5H105H106.5H109L109.5 68.5L110 68H111H112.5H114H116H118.5L119.5 67.5L121 66.5L122 65.5V64.5L122.5 63L123.5 61.5L124 60L124.5 59L125.5 57.5L126 56V55L126.5 54.5L127.5 53L128.5 52.5L129 52L130 51.5L130.5 50.5V49L131.5 47.5L132 46.5V45.5V44V42.5V40.5L132.5 38.5V38L133 36.5L133.5 35.5L134 33.5L134.5 33L135.5 32.5H136L137.5 33L138.5 33.5L139.5 34.5L140 36L141 38L142 39.5L143 42L144 43C144.167 43.3333 144.5 44.1 144.5 44.5C144.5 45 145.5 45 145.5 45.5C145.5 45.9 146.167 46 146.5 46H147H148.5L149 45.5L150 44L150.5 43L151 41.5V40.5L153 38L154 37L154.5 35L155 33V31.5L156.5 29.5V28L157 26.5V25V23L157.5 22.5L158.5 22H159.5L160.5 22.5L161.5 23L162.5 24L163 25L164 26L164.5 28.5L165 29.5L166 31.5L166.5 32.5L167 34.5L167.5 36L168 37.5L168.5 39.5V41V43.5L168 45.5V47.5L167.5 48L168 49.5L168.5 50.5V51.5L169 52.5V53.5V54.5V56.5L169.5 58L170 59L170.5 61L171 63V64.5V66V67V68.5L171.5 70L172 71L172.5 72L173.5 73L175 74L176.5 74.5L177.5 75L179 76.5L180.5 77.5L181.5 78L183 79C183.167 79.1667 183.6 79.5 184 79.5C184.4 79.5 185.167 80.1667 185.5 80.5L187 82L188.5 82.5L192 84.5L193 85L195.5 85.5C196 85.5 197.1 85.5 197.5 85.5C198 85.5 199 85.5 199.5 85.5C200 85.5 201 85.5 201.5 85.5C202 85.5 203.5 85.5 204 85.5C204.5 85.5 206 86 206.5 86C206.9 86 207.667 86 208 86L210.5 86.5L213.5 87L215 87.5L218 88L220 88.5H223.5H225H226.5L228 88L229.5 87.5L232.5 87L236 86.5L239 85.5L242 84C242.5 84 243.6 83.9 244 83.5C244.5 83 247.5 83.5 248 83.5C248.4 83.5 249.833 83.5 250.5 83.5C251.333 83.8333 253.1 84.5 253.5 84.5C253.9 84.5 254.667 84.8333 255 85L258 86L260.5 87L265.5 88H270.5H274H278H280.5H283L286 87.5C286.5 87.5 287.6 87.5 288 87.5C288.4 87.5 289.5 87.5 290 87.5L293 87C293.667 87 295.1 87 295.5 87C296 87 296.5 86.5 297 86.5C297.4 86.5 298.5 86.5 299 86.5L301 86L303.5 85L305 83.5L306.5 82.5L307.5 81.5L308 80.5L308.5 79L309 77V74V73C309 72.5 309 71.4 309 71C309 70.6 309 69.8333 309 69.5V68.5L309.5 67.5L310.5 66L311.5 65L312 63.5L313 61.5L314.5 59.5L315 57.5L316 56L316.5 54.5L317 52.5C317.333 51.8333 318 50.4 318 50C318 49.6 318.333 48.5 318.5 48L319 46V44V42.5L319.5 40L320 38.5L320.5 37.5L321 36L322 35L322.5 34L323 33.5V32.5V31.5V30L323.5 28V26V23.5V22V19.5L323 18V16.5V15V12.5L323.5 11.5V10L324 9L324.5 8L325 7L325.5 6L326.5 6.5L327 7.5V9.5V11L327.5 13.5L328.5 16L329.5 19L330 20L330.5 22L331 24.5V26.5L332 28.5V31C332.167 31.5 332.5 32.6 332.5 33C332.5 33.5 333 34.5 333 35C333 35.4 333.333 36.1667 333.5 36.5V37.5L334 39.5V41.5V43.5V46L333.5 47.5V50.5L334 52V53V55V56V57.5V60L334.5 62V63V64.5L334 66.5V67.5L333.5 69V69.5L332.5 71L332 72L331 73L330.5 74.5L330 75.5L328.5 76.5L327 77.5L326 78L325 79.5L324 80.5L323 81.5L322 83.5L321.5 84.5L321 86L320.5 87.5L320 89V90L319.5 91L319 93L318.5 94V95L318 96.5L317.5 97.5L317 98.5L316.5 100.5L316 101.5V102.5V104.5V106L315.5 108V108.5C315.167 108.833 314.4 109.6 314 110C313.6 110.4 313.5 110.833 313.5 111L313 113L313.5 114.5V115.5V116.5L314 117.5L314.5 118.5L316 120L317 120.5L317.5 121.5L318.5 122.5L319 123V124V124.5L318.5 126V127L318 128L317 129.5L316 131L315 131.5L314 132.5L313.5 133V134.5C313.5 135 313.5 136.1 313.5 136.5C313.5 137 313.5 137.5 313 138C312.6 138.4 312.833 139.5 313 140C313 140.5 313 141.6 313 142C313 142.4 313.333 142.833 313.5 143L314.5 144.5V145.5L315 147.5V148.5L315.5 150L316 152V153L316.5 155L317 157V158.5L317.5 160V161L318 162.5L318.5 164.5L319 166V167V169.5C319 170 319 171.1 319 171.5C319 171.9 319 172.667 319 173L319.5 174.5L320 175L320.5 176V177V178.5L321 180V181.5V184V185.5V187.5L320.5 189.5L320 191L319 192.5L318.5 194.5L317.5 195.5L317 196.5H315.5L314.5 197L312.5 196.5L311 196L309.5 195.5L308.5 194L308 193L307.5 191.5L307 190L306.5 189L306 187.5L305.5 187L305 185V183.5V181.5V179.5L304.5 177V175.5V173V170.5L304 168.5V166.5L303.5 165L303 164L302.5 162C302.5 161.667 302.4 160.8 302 160C301.5 159 302 158.5 301.5 158C301.1 157.6 301 156.5 301 156L300.5 154.5C300.5 153.833 300.5 152.4 300.5 152C300.5 151.6 300.167 150.833 300 150.5L299.5 149L299 148L297 147.5H296.5L295.5 148L295 148.5V149.5V150.5L294.5 152L295 153.5L296 154L296.5 156C296.5 156.5 296.5 157.6 296.5 158C296.5 158.4 296.5 159.5 296.5 160V162L297.5 164.5V167.5L297 170L296 172L295.5 174L295 176L294.5 178L293.5 180L293 182L292 184L290.5 186C290.333 186.5 289.9 187.6 289.5 188C289.1 188.4 288.667 189.5 288.5 190L287.5 191L286 192.5L285.5 194L284 195L283 196L282.5 196.5H281H280L279.5 196L279 195.5L278.5 194.5V192.5L277.5 191L277 189.5L276.5 188V186.5V184.5V183V181.5V180L276 178V176V174.5L276.5 172.5L277 171.5C277.167 171 277.5 169.8 277.5 169C277.5 168.2 277.5 167.667 277.5 167.5L278 165.5V164V162V159.5L277.5 157.5L277 156L276 155L275 154H274H272H270H268.5L267.5 155L266.5 156L265 157L263.5 157.5L262.5 158.5L262 159L260.5 159.5L260 160L258.5 160.5L257 161L256 161.5H254H252.5L250 161L248.5 160.5L247.5 160L246.5 159.5L245.5 158.5L245 157L244.5 156.5L243.5 155L243 154L242 152.5L241 151.5L240 151L239 150.5L238 150L237 149L236.5 148L235.5 147L234.5 146L233.5 145L232.5 144H231H230L229.5 145L229 146V147V148V150L228.5 151V153.5V155L228 156.5L227 159.5L226.5 160.5L225.5 162L225 163.5V166V168.5V170V173V175V176.5V178.5L224.5 180V181L224 182L223.5 183.5L223 185.5V187V188.5V189.5L222.5 191L222 192L221.5 193.5L221 195L220.5 196.5L220 198L219.5 198.5L219 199.5L218 200.5L217.5 201L216.5 202L216 203L215 203.5L214.5 204.5L213.5 205H213H212L211 204.5L210 204V203.5V202V201L209.5 200L209 198.5V197L208.5 195.5V194.5V192V190.5V189.5L208 188.5L207.5 188L207 187L206.5 186V184.5V182.5V178.5V170.5C206.5 169.667 206.5 167.9 206.5 167.5C206.5 167.1 206.5 166 206.5 165.5V163.5V162.5L206 161.5L205.5 161L205 160.5L204.5 160V158.5V156.5V155V153.5L204 152.5L203.5 151.5L203 150.5L202.5 150H201.5H201H200.5L200 150.5V151.5V152.5V155.5V161.5V166V168V169.5V170.5V171.5L199.5 172.5L199 173.5L198 174.5L197.5 175.5L197 176.5L196.5 177V178L196 179L195.5 179.5L195 180.5L194.5 181V182V183V184V185.5V187V188.5V191.5L194 193.5L193.5 195L193 196L192 196.5L191.5 197H191H190.5L189.5 196.5L188 195L187 193.5L186 192.5L185.5 191V189.5V187.5V185.5V182.5V181V179V176.5V174V171.5V170V168V166L185 164.5V163.5L184.5 162.5L184 162H183H182.5L182 162.5L181.5 163.5L181 165L180.5 166.5L180 167.5L179.5 170L179 172L178.5 174.5V176.5L178 179L176.5 182L175.5 185L174.5 187.5L174 189L173.5 191L172.5 194.5L171.5 196.5L171 197L170 198L169.5 199H168.5H167.5H166L164.5 198.5L164 197.5L163.5 196L163 193.5V191.5L162.5 188V184V182L163 180L164 179L165 178L165.5 176.5L166 175.5L167 174.5L167.5 173.5V172L167 170V168V165.5V163V161.5V159.5V157V156L166.5 154.5L166 153L165.5 152L165 151V147V145.5V143.5V142.5V141.5V139.5V138.5L164.5 137.5L163.5 136L162.5 135L162 134L161 133L160.5 132.5L159 131L158 130L157 129L155.5 128.5L154 127.5L153 127H151H150H148L146.5 126.5L145 126L143.5 125.5H141.5H140.5H139H137.5L135.5 125H134.5H133.5H132L130.5 124L129.5 123.5L128.5 123H127.5L126.5 122.5L125.5 122L124.5 121L123.5 120L122.5 119L121.5 118L120.5 117.5H119.5L118.5 118L117.5 118.5L116.5 119H115L113.5 119.5L112.5 120L111.5 120.5L111 121H109.5L108.5 121.5H107.5H105.5H104H102.5H101L100 121V120L99 119H97.5H96.5L95.5 119.5L95 120L94.5 121L94 121.5L93.5 122L92.5 122.5L91.5 123L90 123.5L89 124H87.5H86H85L84 123.5H83.5L82.5 123L82 122.5L81.5 121.5L81 120.5V119.5V119V118V117.5L81.5 117L82 116.5L83 115.5L84 115L86 114.5H87.5H88.5H89.5H90.5H91.5H92.5L93.5 114L94.5 113.5L95.5 113L97 112.5V112L97.5 111L98.5 110.5L99.5 109.5L100 109H101L102 108.5L103 108L103.5 107L104 106.5L104.5 105.5L105.5 105L106.5 104.5L107 104L108 103.5H109L110 103H111.5L113 102.5H114H115L115.5 102L116 101V99.5V98.5V97L115.5 96V94.5L115 94L114 93.5L113 93L111.5 92.5L111 92L110 91.5L109.5 90.5L108.5 90H107.5H106.5H105.5L104.5 90.5L104 91L103 92L102.5 92.5L102 94V94.5L101.5 95L101 95.5L100.5 96L100 96.5H99H98L97.5 95.5L97 95L96.5 94.5L95.5 94L95 93.5L94.5 92.5L93.5 91L93 90L92 89L91.5 88.5L91 88H90H88.5L87.5 88.5V89L86.5 90L86 90.5L85.5 91.5L84.5 92.5L83.5 93L83 94L82.5 94.5L82 95.5L81.5 96H80.5H80L79.5 95.5L79 95V94V93V91.5V90.5V88V86.5V85V83.5V82.5V81V80V79L78.5 78L78 77.5L77.5 77L77 75.5V73.5L77.5 72L78.5 70.5L80 70H82.5M101 70H95M101 70H99H98H96.5H95M101 70H102.25H99.5H100H101ZM95 70H88.5M95 70H93H91H89.5H88.5M88.5 70H82.5M88.5 70H86.5H84.5H83.5H82.5" stroke="#FE00BE" stroke-linejoin="round"/>
</g>
<path d="M107.5 71H109L109.5 70L110 68.5H111.5H116H118.5L119.5 68L121 67L122.5 66V65L123 63L124 61.5L125 59.5L126 57.5L126.5 55.5L128 53.5L129.5 52.5L130.5 52L131 51V50L131.5 48L132.5 46.5V44V41.5L133 38.5L133.5 36L134.5 34.5L135 33.5L136 33L137 33.5H138L139 35L140 37L141 39L142 40.5L143 42.5L143.5 44L144.5 45L146 46.5H149L150 45.5L150.5 44L151 41.5L152 40L154 37.5L155 36L155.5 33.5V31.5L157 30L157.5 28.5V27V25V23L158.5 22.5L160.5 23L162 24.5L163.5 25.5L164 28L164.5 29L165.5 31.5L166.5 34L167 36.5L168 39.5V41V43.5L167.5 45L167 47V48.5L167.5 49.5L168 51.5L168.5 53V54.5L169 57.5L169.5 60L170.5 62.5V65.5V69L171.5 71.5L173.5 73.5L176 75L177.5 75.5L180.5 78L183.5 79.5L186.5 82L188.5 83.5C189.5 84 191.6 85 192 85C192.4 85 194.167 85.6667 195 86H198.5H202L205.5 86.5H209L214 87.5L219 88.5C219.833 88.6667 221.6 89 222 89H225L228 88.5L231 88L234.5 87.5L236.5 87L240.5 85.5L243.5 84H245.5H248H250L252.5 85L254 85.5L258 86.5L260 87L263 88L265.5 88.5H267.5H272.5H277H281L284 88H286.5H289.5L292.5 87.5H295.5L297.5 87L299.5 86.5L303 86L304 85L305 84.5L306.5 83.5L308 81L309 79.5L309.5 76.5V70.5V68.5L311 66.5L312 65L313 62.5L314.5 60.5L315.5 59L316 57.5L316.5 56L317.5 53L318.5 50.5L319 48.5L319.5 46.5V45V43L320 41L320.5 38.5L321 37L322.5 35.5L323 35L323.5 34V30.5L324 28V19.5L323.5 18V16V14L324 12.5V11.5V11L324.5 9.5L325 8.5L326 7L326.5 7.5V8.5V10.5V12.5L328 16L329 18.5L330 21.5L330.5 24.5V27L331.5 28V29V30.5L332 32V33.5L332.5 35L333 37.5L333.5 39V41V43V44.5L333 46.5V48V50L333.5 51.5V53.5V57V60L334 62L333.5 64.5V66.5L333 68L332.5 70L331 72L329.5 75L327.5 76L325.5 77.5L325 79L322.5 81L320.5 85.5L320 87.5L319.5 88.5V90.5L318.5 92.5L318 94.5V95.5L316.5 98L315.5 101.5V105L315 108L314.5 108.5L313.5 109.5L313 110.5V111.5L312.5 113L313 114.5V116.5L314 119L315 119.5L316 120.5L317 121.5L317.5 122L318.5 123V124L318 126L317.5 128L316.5 130L314.5 131L313 132.5V133.5V135L313.5 136.5L312.5 137.5L312 138.5L312.5 140V141.5L314 144V145V146L314.5 147.5V149L315.5 151L316 154V155L316.5 156.5V157.5V158.5L317 159.5V160.5V161.5L317.5 163.5L318.5 165.5V167V170.5V173L319 174L319.5 175.5L320 176.5V178V179L320.5 181V183V185.5V187.5L320 188.5L319.5 190L318.5 191.5V193L318 194L317.5 195L316 196H314H313L311 195.5L310 195L309 194L308.5 192.5L308 191L306.5 188L305.5 185V179.5L305 177V172.5V170.5V169L304.5 167V165.5L303.5 164L303 163V161.5L302.5 160V158.5L302 157.5L301.5 156L301 154.5V152L300.5 150L299.5 148.5L299 147.5L298 147H297H296L295 147.5L294.5 148.5V150L294 152V153L295 154L296 155.5V161.5V163L297 164.5V166.5V168L296.5 169.5L295.5 172L294.5 175.5L293.5 179.5L293 180.5L292.5 182L291.5 183.5L290 186L288 189.5L287 191L286 192L285 193.5L284 194.5L283.5 195L282.5 196H280L279 194.5V192L278 190.5L277 188.5V182V180L276.5 177.5V175L277 173L278 170V167.5C278 167.1 278.333 166.667 278.5 166.5V164V160L277.5 156L275.5 153.5H268L265.5 156L264 157L263 157.5L261.5 158.5L260 159.5L255.5 161H253.5L251.5 160.5L248 160L246 158L245.5 157L244 154.5L242.5 152L241 151L240 150L238 149L237 148L236.5 147L234.5 145L233.5 144L232.5 143.5H231H230L229 144L228.5 146.5V149.5L228 151V155L226 160L225 161.5L224.5 163.5V175.5V178L224 179V180V181L223 182.5L222.5 185.5V187.5V189L221.5 191L220.5 194L220 196.5L219.5 198L218.5 199.5L217 200.5L215.5 202L214.5 203V204L213 204.5L210.5 203.5V201L210 199.5L209.5 197L209 195.5V190V189L208 188L207 186V165.5V162.5L206.5 161.5L205 160V153.5L204.5 152L203.5 150.5L202.5 149.5H201H200L199.5 150.252V170.5L199 171.5L198.5 173L197.5 174L197 175L196.5 176L196 177V177.5L195.5 178.5L195 179L194.5 180L194 181V182V184.5V187V189V191L193.5 193.5L193 195L192 196L190.5 196.5L188.5 194.5L187.5 193L186.5 192L186 190V186V179.5V176V174.5V170V167.5V165L185.5 163.5L184.5 162L184 161.5H183H182L181 163L180.5 165L179.5 167.5L178.5 171.5L178 173.5V175V176.5L177.5 178.5L177 179L176 182L173.5 188.5L173 190.5L172.5 192.5L172 193.5L171 195.5L170.5 196.5L169.5 197.5L168.5 198.5H167H166L164.5 197.5L164 195L163.5 193.5V191.5V190L163 189V187V185V183V181L164 180L165 178.5L166 177.5L166.5 176L167.5 175L168 174V172.5V171.5L167.5 169V164.5V161V158.5V155.5L167 153.5L166.5 152.5L165.5 151V148.5V146V143.5L166 141L165.5 138.5L165 137.5L164.5 136.5L163 135L162.5 134L160.5 131.5L158.5 129.5L157.5 128.5L156 128L153.5 126.5H148L143.5 125H142H139.5H138C137.5 124.833 136.4 124.5 136 124.5H134H133L131 123.5L129 122.5H127.5L125 120.5L123.5 119.5L122 117.5L120.5 117H119L118 117.5L116.5 118.5H114.5L113 119L111.5 120L111 120.5H109.5L108.5 121H106.5H103H101.5L100.5 120.5V119.5L100 119L99 118.5H97L95.5 119L94.5 120L93.5 121L91.5 122L90 123L88.5 123.5H85.5L84 123L82.5 122L81.5 120.5V118.5V117.5L82.5 117L83.5 116L86 115H87.5H90H92L93.5 114.5L94.5 114L96.5 113L97.5 112.5V112L98 111.5L99.5 110.5L100.5 109.5L102 109L103.5 108.5L104 107.5L104.5 106L106.5 105L107 104.5L108 104H109L110 103.5H111.5L113 103H115L116 102.5L116.5 101V97L116 96V94.5L115.5 94L115 93.5L114 93L113 92.5L112 92L111.5 91.5L110.5 91L110 90L108.5 89.5H107L104.5 90L103 91L102 92L101.5 93.5V94.5L100.5 95.5L100 96H99L98 95.5L97.5 95L96.5 94L95.5 93.5L94 91L93 89.5L91.5 88L89.5 87.5H88L87 88.5L86.5 89L85.5 90L85 91L84 92.5L83.5 93L82.5 93.5L82 94.5L81.5 95.5H81H80L79.5 94.5V86.5V85V83.5V81.5V80V79L79 78V77.5L78.5 77L78 76.5V76V75L77.5 74L78 73V72.5L78.5 71.5L79 71H80H81.5H83H84H86.5H88.5H90H91.5H93.5H95H97H99H100.5H102.5H104.5H106H107.5Z" stroke="#FE00BE" stroke-width="2" stroke-linejoin="round"/>
<defs>
<filter id="filter0_d_1003_34" x="14.5" y="116.5" width="28" height="25.5" filterUnits="userSpaceOnUse" color-interpolation-filters="sRGB">
<feFlood flood-opacity="0" result="BackgroundImageFix"/>
<feColorMatrix in="SourceAlpha" type="matrix" values="0 0 0 0 0 0 0 0 0 0 0 0 0 0 0 0 0 0 127 0" result="hardAlpha"/>
<feOffset/>
<feGaussianBlur stdDeviation="2"/>
<feColorMatrix type="matrix" values="0 0 0 0 0.996078 0 0 0 0 0 0 0 0 0 0.745098 0 0 0 1 0"/>
<feBlend mode="normal" in2="BackgroundImageFix" result="effect1_dropShadow_1003_34"/>
<feBlend mode="normal" in="SourceGraphic" in2="effect1_dropShadow_1003_34" result="shape"/>
</filter>
<filter id="filter1_d_1003_34" x="0.499756" y="79.1679" width="45.0007" height="21.3324" filterUnits="userSpaceOnUse" color-interpolation-filters="sRGB">
<feFlood flood-opacity="0" result="BackgroundImageFix"/>
<feColorMatrix in="SourceAlpha" type="matrix" values="0 0 0 0 0 0 0 0 0 0 0 0 0 0 0 0 0 0 127 0" result="hardAlpha"/>
<feOffset/>
<feGaussianBlur stdDeviation="2"/>
<feColorMatrix type="matrix" values="0 0 0 0 0.996078 0 0 0 0 0 0 0 0 0 0.745098 0 0 0 1 0"/>
<feBlend mode="normal" in2="BackgroundImageFix" result="effect1_dropShadow_1003_34"/>
<feBlend mode="normal" in="SourceGraphic" in2="effect1_dropShadow_1003_34" result="shape"/>
</filter>
<filter id="filter2_d_1003_34" x="3" y="102.5" width="36.5002" height="13.5003" filterUnits="userSpaceOnUse" color-interpolation-filters="sRGB">
<feFlood flood-opacity="0" result="BackgroundImageFix"/>
<feColorMatrix in="SourceAlpha" type="matrix" values="0 0 0 0 0 0 0 0 0 0 0 0 0 0 0 0 0 0 127 0" result="hardAlpha"/>
<feOffset/>
<feGaussianBlur stdDeviation="2"/>
<feColorMatrix type="matrix" values="0 0 0 0 0.996078 0 0 0 0 0 0 0 0 0 0.745098 0 0 0 1 0"/>
<feBlend mode="normal" in2="BackgroundImageFix" result="effect1_dropShadow_1003_34"/>
<feBlend mode="normal" in="SourceGraphic" in2="effect1_dropShadow_1003_34" result="shape"/>
</filter>
<filter id="filter3_d_1003_34" x="132.9" y="66.9" width="6.7" height="8.20002" filterUnits="userSpaceOnUse" color-interpolation-filters="sRGB">
<feFlood flood-opacity="0" result="BackgroundImageFix"/>
<feColorMatrix in="SourceAlpha" type="matrix" values="0 0 0 0 0 0 0 0 0 0 0 0 0 0 0 0 0 0 127 0" result="hardAlpha"/>
<feOffset/>
<feGaussianBlur stdDeviation="0.3"/>
<feColorMatrix type="matrix" values="0 0 0 0 0.996078 0 0 0 0 0 0 0 0 0 0.745098 0 0 0 1 0"/>
<feBlend mode="normal" in2="BackgroundImageFix" result="effect1_dropShadow_1003_34"/>
<feBlend mode="normal" in="SourceGraphic" in2="effect1_dropShadow_1003_34" result="shape"/>
</filter>
<filter id="filter4_d_1003_34" x="71.5" y="0.499878" width="268.5" height="210" filterUnits="userSpaceOnUse" color-interpolation-filters="sRGB">
<feFlood flood-opacity="0" result="BackgroundImageFix"/>
<feColorMatrix in="SourceAlpha" type="matrix" values="0 0 0 0 0 0 0 0 0 0 0 0 0 0 0 0 0 0 127 0" result="hardAlpha"/>
<feOffset/>
<feGaussianBlur stdDeviation="2.5"/>
<feColorMatrix type="matrix" values="0 0 0 0 0.996078 0 0 0 0 0 0 0 0 0 0.745098 0 0 0 1 0"/>
<feBlend mode="normal" in2="BackgroundImageFix" result="effect1_dropShadow_1003_34"/>
<feBlend mode="normal" in="SourceGraphic" in2="effect1_dropShadow_1003_34" result="shape"/>
</filter>
</defs>
</svg>
