<svg width="759" height="701" viewBox="0 0 759 701" fill="none" xmlns="http://www.w3.org/2000/svg">
<g filter="url(#filter0_dddddd_1003_34)">
<path d="M194 381.5L198.5 377.5L203 373.5L207.5 370.5L211 367" stroke="#FE00BE" stroke-width="3" stroke-linecap="round"/>
</g>
<g filter="url(#filter1_dddddd_1003_34)">
<path d="M180 330C193 328.5 192.654 332.45 199 334.5L207 338L214 340" stroke="#FE00BE" stroke-width="3" stroke-linecap="round"/>
</g>
<g filter="url(#filter2_dddddd_1003_34)">
<path d="M182.5 355.5H189.5L195.5 354H203L208 353" stroke="#FE00BE" stroke-width="3" stroke-linecap="round"/>
</g>
<g filter="url(#filter3_dddddd_1003_34)">
<path d="M308.5 316.5L309 318.5H310H311L312 318V316L311.5 314.5L310 313.5L309 314.5L308.5 316.5Z" fill="#FE00BE"/>
<path d="M308.5 316.5L309 318.5H310H311L312 318V316L311.5 314.5L310 313.5L309 314.5L308.5 316.5Z" stroke="#FE00BE" stroke-opacity="0.1" stroke-width="2" stroke-miterlimit="3.15155" stroke-linejoin="round"/>
</g>
<g filter="url(#filter4_dddddd_1003_34)">
<path d="M275 315H277.5H279H280.5H283L283.5 313.5L284 313H285H286.5H288H290H292.5L293.5 312.5L295 311.5L296 310.5V309.5L296.5 308L297.5 306.5L298 305L298.5 304L299.5 302.5L300 301V300L300.5 299.5L301.5 298L302.5 297.5L303 297L304 296.5L304.5 295.5V294L305.5 292.5L306 291.5V290.5V289V287.5V285.5L306.5 283.5V283L307 281.5L307.5 280.5L308 278.5L308.5 278L309.5 277.5H310L311.5 278L312.5 278.5L313.5 279.5L314 281L315 283L316 284.5L317 287L318 288C318.167 288.333 318.5 289.1 318.5 289.5C318.5 290 319.5 290 319.5 290.5C319.5 290.9 320.167 291 320.5 291H321H322.5L323 290.5L324 289L324.5 288L325 286.5V285.5L327 283L328 282L328.5 280L329 278V276.5L330.5 274.5V273L331 271.5V270V268L331.5 267.5L332.5 267H333.5L334.5 267.5L335.5 268L336.5 269L337 270L338 271L338.5 273.5L339 274.5L340 276.5L340.5 277.5L341 279.5L341.5 281L342 282.5L342.5 284.5V286V288.5L342 290.5V292.5L341.5 293L342 294.5L342.5 295.5V296.5L343 297.5V298.5V299.5V301.5L343.5 303L344 304L344.5 306L345 308V309.5V311V312V313.5L345.5 315L346 316L346.5 317L347.5 318L349 319L350.5 319.5L351.5 320L353 321.5L354.5 322.5L355.5 323L357 324C357.167 324.167 357.6 324.5 358 324.5C358.4 324.5 359.167 325.167 359.5 325.5L361 327L362.5 327.5L366 329.5L367 330L369.5 330.5C370 330.5 371.1 330.5 371.5 330.5C372 330.5 373 330.5 373.5 330.5C374 330.5 375 330.5 375.5 330.5C376 330.5 377.5 330.5 378 330.5C378.5 330.5 380 331 380.5 331C380.9 331 381.667 331 382 331L384.5 331.5L387.5 332L389 332.5L392 333L394 333.5H397.5H399H400.5L402 333L403.5 332.5L406.5 332L410 331.5L413 330.5L416 329C416.5 329 417.6 328.9 418 328.5C418.5 328 421.5 328.5 422 328.5C422.4 328.5 423.833 328.5 424.5 328.5C425.333 328.833 427.1 329.5 427.5 329.5C427.9 329.5 428.667 329.833 429 330L432 331L434.5 332L439.5 333H444.5H448H452H454.5H457L460 332.5C460.5 332.5 461.6 332.5 462 332.5C462.4 332.5 463.5 332.5 464 332.5L467 332C467.667 332 469.1 332 469.5 332C470 332 470.5 331.5 471 331.5C471.4 331.5 472.5 331.5 473 331.5L475 331L477.5 330L479 328.5L480.5 327.5L481.5 326.5L482 325.5L482.5 324L483 322V319V318C483 317.5 483 316.4 483 316C483 315.6 483 314.833 483 314.5V313.5L483.5 312.5L484.5 311L485.5 310L486 308.5L487 306.5L488.5 304.5L489 302.5L490 301L490.5 299.5L491 297.5C491.333 296.833 492 295.4 492 295C492 294.6 492.333 293.5 492.5 293L493 291V289V287.5L493.5 285L494 283.5L494.5 282.5L495 281L496 280L496.5 279L497 278.5V277.5V276.5V275L497.5 273V271V268.5V267V264.5L497 263V261.5V260V257.5L497.5 256.5V255L498 254L498.5 253L499 252L499.5 251L500.5 251.5L501 252.5V254.5V256L501.5 258.5L502.5 261L503.5 264L504 265L504.5 267L505 269.5V271.5L506 273.5V276C506.167 276.5 506.5 277.6 506.5 278C506.5 278.5 507 279.5 507 280C507 280.4 507.333 281.167 507.5 281.5V282.5L508 284.5V286.5V288.5V291L507.5 292.5V295.5L508 297V298V300V301V302.5V305L508.5 307V308V309.5L508 311.5V312.5L507.5 314V314.5L506.5 316L506 317L505 318L504.5 319.5L504 320.5L502.5 321.5L501 322.5L500 323L499 324.5L498 325.5L497 326.5L496 328.5L495.5 329.5L495 331L494.5 332.5L494 334V335L493.5 336L493 338L492.5 339V340L492 341.5L491.5 342.5L491 343.5L490.5 345.5L490 346.5V347.5V349.5V351L489.5 353V353.5C489.167 353.833 488.4 354.6 488 355C487.6 355.4 487.5 355.833 487.5 356L487 358L487.5 359.5V360.5V361.5L488 362.5L488.5 363.5L490 365L491 365.5L491.5 366.5L492.5 367.5L493 368V369V369.5L492.5 371V372L492 373L491 374.5L490 376L489 376.5L488 377.5L487.5 378V379.5C487.5 380 487.5 381.1 487.5 381.5C487.5 382 487.5 382.5 487 383C486.6 383.4 486.833 384.5 487 385C487 385.5 487 386.6 487 387C487 387.4 487.333 387.833 487.5 388L488.5 389.5V390.5L489 392.5V393.5L489.5 395L490 397V398L490.5 400L491 402V403.5L491.5 405V406L492 407.5L492.5 409.5L493 411V412V414.5C493 415 493 416.1 493 416.5C493 416.9 493 417.667 493 418L493.5 419.5L494 420L494.5 421V422V423.5L495 425V426.5V429V430.5V432.5L494.5 434.5L494 436L493 437.5L492.5 439.5L491.5 440.5L491 441.5H489.5L488.5 442L486.5 441.5L485 441L483.5 440.5L482.5 439L482 438L481.5 436.5L481 435L480.5 434L480 432.5L479.5 432L479 430V428.5V426.5V424.5L478.5 422V420.5V418V415.5L478 413.5V411.5L477.5 410L477 409L476.5 407C476.5 406.667 476.4 405.8 476 405C475.5 404 476 403.5 475.5 403C475.1 402.6 475 401.5 475 401L474.5 399.5C474.5 398.833 474.5 397.4 474.5 397C474.5 396.6 474.167 395.833 474 395.5L473.5 394L473 393L471 392.5H470.5L469.5 393L469 393.5V394.5V395.5L468.5 397L469 398.5L470 399L470.5 401C470.5 401.5 470.5 402.6 470.5 403C470.5 403.4 470.5 404.5 470.5 405V407L471.5 409.5V412.5L471 415L470 417L469.5 419L469 421L468.5 423L467.5 425L467 427L466 429L464.5 431C464.333 431.5 463.9 432.6 463.5 433C463.1 433.4 462.667 434.5 462.5 435L461.5 436L460 437.5L459.5 439L458 440L457 441L456.5 441.5H455H454L453.5 441L453 440.5L452.5 439.5V437.5L451.5 436L451 434.5L450.5 433V431.5V429.5V428V426.5V425L450 423V421V419.5L450.5 417.5L451 416.5C451.167 416 451.5 414.8 451.5 414C451.5 413.2 451.5 412.667 451.5 412.5L452 410.5V409V407V404.5L451.5 402.5L451 401L450 400L449 399H448H446H444H442.5L441.5 400L440.5 401L439 402L437.5 402.5L436.5 403.5L436 404L434.5 404.5L434 405L432.5 405.5L431 406L430 406.5H428H426.5L424 406L422.5 405.5L421.5 405L420.5 404.5L419.5 403.5L419 402L418.5 401.5L417.5 400L417 399L416 397.5L415 396.5L414 396L413 395.5L412 395L411 394L410.5 393L409.5 392L408.5 391L407.5 390L406.5 389H405H404L403.5 390L403 391V392V393V395L402.5 396V398.5V400L402 401.5L401 404.5L400.5 405.5L399.5 407L399 408.5V411V413.5V415V418V420V421.5V423.5L398.5 425V426L398 427L397.5 428.5L397 430.5V432V433.5V434.5L396.5 436L396 437L395.5 438.5L395 440L394.5 441.5L394 443L393.5 443.5L393 444.5L392 445.5L391.5 446L390.5 447L390 448L389 448.5L388.5 449.5L387.5 450H387H386L385 449.5L384 449V448.5V447V446L383.5 445L383 443.5V442L382.5 440.5V439.5V437V435.5V434.5L382 433.5L381.5 433L381 432L380.5 431V429.5V427.5V423.5V415.5C380.5 414.667 380.5 412.9 380.5 412.5C380.5 412.1 380.5 411 380.5 410.5V408.5V407.5L380 406.5L379.5 406L379 405.5L378.5 405V403.5V401.5V400V398.5L378 397.5L377.5 396.5L377 395.5L376.5 395H375.5H375H374.5L374 395.5V396.5V397.5V400.5V406.5V411V413V414.5V415.5V416.5L373.5 417.5L373 418.5L372 419.5L371.5 420.5L371 421.5L370.5 422V423L370 424L369.5 424.5L369 425.5L368.5 426V427V428V429V430.5V432V433.5V436.5L368 438.5L367.5 440L367 441L366 441.5L365.5 442H365H364.5L363.5 441.5L362 440L361 438.5L360 437.5L359.5 436V434.5V432.5V430.5V427.5V426V424V421.5V419V416.5V415V413V411L359 409.5V408.5L358.5 407.5L358 407H357H356.5L356 407.5L355.5 408.5L355 410L354.5 411.5L354 412.5L353.5 415L353 417L352.5 419.5V421.5L352 424L350.5 427L349.5 430L348.5 432.5L348 434L347.5 436L346.5 439.5L345.5 441.5L345 442L344 443L343.5 444H342.5H341.5H340L338.5 443.5L338 442.5L337.5 441L337 438.5V436.5L336.5 433V429V427L337 425L338 424L339 423L339.5 421.5L340 420.5L341 419.5L341.5 418.5V417L341 415V413V410.5V408V406.5V404.5V402V401L340.5 399.5L340 398L339.5 397L339 396V392V390.5V388.5V387.5V386.5V384.5V383.5L338.5 382.5L337.5 381L336.5 380L336 379L335 378L334.5 377.5L333 376L332 375L331 374L329.5 373.5L328 372.5L327 372H325H324H322L320.5 371.5L319 371L317.5 370.5H315.5H314.5H313H311.5L309.5 370H308.5H307.5H306L304.5 369L303.5 368.5L302.5 368H301.5L300.5 367.5L299.5 367L298.5 366L297.5 365L296.5 364L295.5 363L294.5 362.5H293.5L292.5 363L291.5 363.5L290.5 364H289L287.5 364.5L286.5 365L285.5 365.5L285 366H283.5L282.5 366.5H281.5H279.5H278H276.5H275L274 366V365L273 364H271.5H270.5L269.5 364.5L269 365L268.5 366L268 366.5L267.5 367L266.5 367.5L265.5 368L264 368.5L263 369H261.5H260H259L258 368.5H257.5L256.5 368L256 367.5L255.5 366.5L255 365.5V364.5V364V363V362.5L255.5 362L256 361.5L257 360.5L258 360L260 359.5H261.5H262.5H263.5H264.5H265.5H266.5L267.5 359L268.5 358.5L269.5 358L271 357.5V357L271.5 356L272.5 355.5L273.5 354.5L274 354H275L276 353.5L277 353L277.5 352L278 351.5L278.5 350.5L279.5 350L280.5 349.5L281 349L282 348.5H283L284 348H285.5L287 347.5H288H289L289.5 347L290 346V344.5V343.5V342L289.5 341V339.5L289 339L288 338.5L287 338L285.5 337.5L285 337L284 336.5L283.5 335.5L282.5 335H281.5H280.5H279.5L278.5 335.5L278 336L277 337L276.5 337.5L276 339V339.5L275.5 340L275 340.5L274.5 341L274 341.5H273H272L271.5 340.5L271 340L270.5 339.5L269.5 339L269 338.5L268.5 337.5L267.5 336L267 335L266 334L265.5 333.5L265 333H264H262.5L261.5 333.5V334L260.5 335L260 335.5L259.5 336.5L258.5 337.5L257.5 338L257 339L256.5 339.5L256 340.5L255.5 341H254.5H254L253.5 340.5L253 340V339V338V336.5V335.5V333V331.5V330V328.5V327.5V326V325V324L252.5 323L252 322.5L251.5 322L251 320.5V318.5L251.5 317L252.5 315.5L254 315H256.5M275 315H269M275 315H273H272H270.5H269M275 315H276.25H273.5H274H275ZM269 315H262.5M269 315H267H265H263.5H262.5M262.5 315H256.5M262.5 315H260.5H258.5H257.5H256.5" stroke="#FE00BE" stroke-linejoin="round"/>
</g>
<g filter="url(#filter5_dddddd_1003_34)">
<path d="M281.5 316H283L283.5 315L284 313.5H285.5H290H292.5L293.5 313L295 312L296.5 311V310L297 308L298 306.5L299 304.5L300 302.5L300.5 300.5L302 298.5L303.5 297.5L304.5 297L305 296V295L305.5 293L306.5 291.5V289V286.5L307 283.5L307.5 281L308.5 279.5L309 278.5L310 278L311 278.5H312L313 280L314 282L315 284L316 285.5L317 287.5L317.5 289L318.5 290L320 291.5H323L324 290.5L324.5 289L325 286.5L326 285L328 282.5L329 281L329.5 278.5V276.5L331 275L331.5 273.5V272V270V268L332.5 267.5L334.5 268L336 269.5L337.5 270.5L338 273L338.5 274L339.5 276.5L340.5 279L341 281.5L342 284.5V286V288.5L341.5 290L341 292V293.5L341.5 294.5L342 296.5L342.5 298V299.5L343 302.5L343.5 305L344.5 307.5V310.5V314L345.5 316.5L347.5 318.5L350 320L351.5 320.5L354.5 323L357.5 324.5L360.5 327L362.5 328.5C363.5 329 365.6 330 366 330C366.4 330 368.167 330.667 369 331H372.5H376L379.5 331.5H383L388 332.5L393 333.5C393.833 333.667 395.6 334 396 334H399L402 333.5L405 333L408.5 332.5L410.5 332L414.5 330.5L417.5 329H419.5H422H424L426.5 330L428 330.5L432 331.5L434 332L437 333L439.5 333.5H441.5H446.5H451H455L458 333H460.5H463.5L466.5 332.5H469.5L471.5 332L473.5 331.5L477 331L478 330L479 329.5L480.5 328.5L482 326L483 324.5L483.5 321.5V315.5V313.5L485 311.5L486 310L487 307.5L488.5 305.5L489.5 304L490 302.5L490.5 301L491.5 298L492.5 295.5L493 293.5L493.5 291.5V290V288L494 286L494.5 283.5L495 282L496.5 280.5L497 280L497.5 279V275.5L498 273V264.5L497.5 263V261V259L498 257.5V256.5V256L498.5 254.5L499 253.5L500 252L500.5 252.5V253.5V255.5V257.5L502 261L503 263.5L504 266.5L504.5 269.5V272L505.5 273V274V275.5L506 277V278.5L506.5 280L507 282.5L507.5 284V286V288V289.5L507 291.5V293V295L507.5 296.5V298.5V302V305L508 307L507.5 309.5V311.5L507 313L506.5 315L505 317L503.5 320L501.5 321L499.5 322.5L499 324L496.5 326L494.5 330.5L494 332.5L493.5 333.5V335.5L492.5 337.5L492 339.5V340.5L490.5 343L489.5 346.5V350L489 353L488.5 353.5L487.5 354.5L487 355.5V356.5L486.5 358L487 359.5V361.5L488 364L489 364.5L490 365.5L491 366.5L491.5 367L492.5 368V369L492 371L491.5 373L490.5 375L488.5 376L487 377.5V378.5V380L487.5 381.5L486.5 382.5L486 383.5L486.5 385V386.5L488 389V390V391L488.5 392.5V394L489.5 396L490 399V400L490.5 401.5V402.5V403.5L491 404.5V405.5V406.5L491.5 408.5L492.5 410.5V412V415.5V418L493 419L493.5 420.5L494 421.5V423V424L494.5 426V428V430.5V432.5L494 433.5L493.5 435L492.5 436.5V438L492 439L491.5 440L490 441H488H487L485 440.5L484 440L483 439L482.5 437.5L482 436L480.5 433L479.5 430V424.5L479 422V417.5V415.5V414L478.5 412V410.5L477.5 409L477 408V406.5L476.5 405V403.5L476 402.5L475.5 401L475 399.5V397L474.5 395L473.5 393.5L473 392.5L472 392H471H470L469 392.5L468.5 393.5V395L468 397V398L469 399L470 400.5V406.5V408L471 409.5V411.5V413L470.5 414.5L469.5 417L468.5 420.5L467.5 424.5L467 425.5L466.5 427L465.5 428.5L464 431L462 434.5L461 436L460 437L459 438.5L458 439.5L457.5 440L456.5 441H454L453 439.5V437L452 435.5L451 433.5V427V425L450.5 422.5V420L451 418L452 415V412.5C452 412.1 452.333 411.667 452.5 411.5V409V405L451.5 401L449.5 398.5H442L439.5 401L438 402L437 402.5L435.5 403.5L434 404.5L429.5 406H427.5L425.5 405.5L422 405L420 403L419.5 402L418 399.5L416.5 397L415 396L414 395L412 394L411 393L410.5 392L408.5 390L407.5 389L406.5 388.5H405H404L403 389L402.5 391.5V394.5L402 396V400L400 405L399 406.5L398.5 408.5V420.5V423L398 424V425V426L397 427.5L396.5 430.5V432.5V434L395.5 436L394.5 439L394 441.5L393.5 443L392.5 444.5L391 445.5L389.5 447L388.5 448V449L387 449.5L384.5 448.5V446L384 444.5L383.5 442L383 440.5V435V434L382 433L381 431V410.5V407.5L380.5 406.5L379 405V398.5L378.5 397L377.5 395.5L376.5 394.5H375H374L373.5 395.252V415.5L373 416.5L372.5 418L371.5 419L371 420L370.5 421L370 422V422.5L369.5 423.5L369 424L368.5 425L368 426V427V429.5V432V434V436L367.5 438.5L367 440L366 441L364.5 441.5L362.5 439.5L361.5 438L360.5 437L360 435V431V424.5V421V419.5V415V412.5V410L359.5 408.5L358.5 407L358 406.5H357H356L355 408L354.5 410L353.5 412.5L352.5 416.5L352 418.5V420V421.5L351.5 423.5L351 424L350 427L347.5 433.5L347 435.5L346.5 437.5L346 438.5L345 440.5L344.5 441.5L343.5 442.5L342.5 443.5H341H340L338.5 442.5L338 440L337.5 438.5V436.5V435L337 434V432V430V428V426L338 425L339 423.5L340 422.5L340.5 421L341.5 420L342 419V417.5V416.5L341.5 414V409.5V406V403.5V400.5L341 398.5L340.5 397.5L339.5 396V393.5V391V388.5L340 386L339.5 383.5L339 382.5L338.5 381.5L337 380L336.5 379L334.5 376.5L332.5 374.5L331.5 373.5L330 373L327.5 371.5H322L317.5 370H316H313.5H312C311.5 369.833 310.4 369.5 310 369.5H308H307L305 368.5L303 367.5H301.5L299 365.5L297.5 364.5L296 362.5L294.5 362H293L292 362.5L290.5 363.5H288.5L287 364L285.5 365L285 365.5H283.5L282.5 366H280.5H277H275.5L274.5 365.5V364.5L274 364L273 363.5H271L269.5 364L268.5 365L267.5 366L265.5 367L264 368L262.5 368.5H259.5L258 368L256.5 367L255.5 365.5V363.5V362.5L256.5 362L257.5 361L260 360H261.5H264H266L267.5 359.5L268.5 359L270.5 358L271.5 357.5V357L272 356.5L273.5 355.5L274.5 354.5L276 354L277.5 353.5L278 352.5L278.5 351L280.5 350L281 349.5L282 349H283L284 348.5H285.5L287 348H289L290 347.5L290.5 346V342L290 341V339.5L289.5 339L289 338.5L288 338L287 337.5L286 337L285.5 336.5L284.5 336L284 335L282.5 334.5H281L278.5 335L277 336L276 337L275.5 338.5V339.5L274.5 340.5L274 341H273L272 340.5L271.5 340L270.5 339L269.5 338.5L268 336L267 334.5L265.5 333L263.5 332.5H262L261 333.5L260.5 334L259.5 335L259 336L258 337.5L257.5 338L256.5 338.5L256 339.5L255.5 340.5H255H254L253.5 339.5V331.5V330V328.5V326.5V325V324L253 323V322.5L252.5 322L252 321.5V321V320L251.5 319L252 318V317.5L252.5 316.5L253 316H254H255.5H257H258H260.5H262.5H264H265.5H267.5H269H271H273H274.5H276.5H278.5H280H281.5Z" stroke="#FE00BE" stroke-width="2" stroke-linejoin="round"/>
</g>
<defs>
<filter id="filter0_dddddd_1003_34" x="106.82" y="279.82" width="191.36" height="188.86" filterUnits="userSpaceOnUse" color-interpolation-filters="sRGB">
<feFlood flood-opacity="0" result="BackgroundImageFix"/>
<feColorMatrix in="SourceAlpha" type="matrix" values="0 0 0 0 0 0 0 0 0 0 0 0 0 0 0 0 0 0 127 0" result="hardAlpha"/>
<feOffset/>
<feGaussianBlur stdDeviation="1.02"/>
<feColorMatrix type="matrix" values="0 0 0 0 0.996078 0 0 0 0 0 0 0 0 0 0.745098 0 0 0 1 0"/>
<feBlend mode="normal" in2="BackgroundImageFix" result="effect1_dropShadow_1003_34"/>
<feColorMatrix in="SourceAlpha" type="matrix" values="0 0 0 0 0 0 0 0 0 0 0 0 0 0 0 0 0 0 127 0" result="hardAlpha"/>
<feOffset/>
<feGaussianBlur stdDeviation="2.04"/>
<feColorMatrix type="matrix" values="0 0 0 0 0.996078 0 0 0 0 0 0 0 0 0 0.745098 0 0 0 1 0"/>
<feBlend mode="normal" in2="effect1_dropShadow_1003_34" result="effect2_dropShadow_1003_34"/>
<feColorMatrix in="SourceAlpha" type="matrix" values="0 0 0 0 0 0 0 0 0 0 0 0 0 0 0 0 0 0 127 0" result="hardAlpha"/>
<feOffset/>
<feGaussianBlur stdDeviation="7.14"/>
<feColorMatrix type="matrix" values="0 0 0 0 0.996078 0 0 0 0 0 0 0 0 0 0.745098 0 0 0 1 0"/>
<feBlend mode="normal" in2="effect2_dropShadow_1003_34" result="effect3_dropShadow_1003_34"/>
<feColorMatrix in="SourceAlpha" type="matrix" values="0 0 0 0 0 0 0 0 0 0 0 0 0 0 0 0 0 0 127 0" result="hardAlpha"/>
<feOffset/>
<feGaussianBlur stdDeviation="14.28"/>
<feColorMatrix type="matrix" values="0 0 0 0 0.996078 0 0 0 0 0 0 0 0 0 0.745098 0 0 0 1 0"/>
<feBlend mode="normal" in2="effect3_dropShadow_1003_34" result="effect4_dropShadow_1003_34"/>
<feColorMatrix in="SourceAlpha" type="matrix" values="0 0 0 0 0 0 0 0 0 0 0 0 0 0 0 0 0 0 127 0" result="hardAlpha"/>
<feOffset/>
<feGaussianBlur stdDeviation="24.48"/>
<feColorMatrix type="matrix" values="0 0 0 0 0.996078 0 0 0 0 0 0 0 0 0 0.745098 0 0 0 1 0"/>
<feBlend mode="normal" in2="effect4_dropShadow_1003_34" result="effect5_dropShadow_1003_34"/>
<feColorMatrix in="SourceAlpha" type="matrix" values="0 0 0 0 0 0 0 0 0 0 0 0 0 0 0 0 0 0 127 0" result="hardAlpha"/>
<feOffset/>
<feGaussianBlur stdDeviation="42.84"/>
<feColorMatrix type="matrix" values="0 0 0 0 0.996078 0 0 0 0 0 0 0 0 0 0.745098 0 0 0 1 0"/>
<feBlend mode="normal" in2="effect5_dropShadow_1003_34" result="effect6_dropShadow_1003_34"/>
<feBlend mode="normal" in="SourceGraphic" in2="effect6_dropShadow_1003_34" result="shape"/>
</filter>
<filter id="filter1_dddddd_1003_34" x="7.13976" y="156.808" width="379.721" height="356.052" filterUnits="userSpaceOnUse" color-interpolation-filters="sRGB">
<feFlood flood-opacity="0" result="BackgroundImageFix"/>
<feColorMatrix in="SourceAlpha" type="matrix" values="0 0 0 0 0 0 0 0 0 0 0 0 0 0 0 0 0 0 127 0" result="hardAlpha"/>
<feOffset/>
<feGaussianBlur stdDeviation="2.04"/>
<feColorMatrix type="matrix" values="0 0 0 0 0.996078 0 0 0 0 0 0 0 0 0 0.745098 0 0 0 1 0"/>
<feBlend mode="normal" in2="BackgroundImageFix" result="effect1_dropShadow_1003_34"/>
<feColorMatrix in="SourceAlpha" type="matrix" values="0 0 0 0 0 0 0 0 0 0 0 0 0 0 0 0 0 0 127 0" result="hardAlpha"/>
<feOffset/>
<feGaussianBlur stdDeviation="4.08"/>
<feColorMatrix type="matrix" values="0 0 0 0 0.996078 0 0 0 0 0 0 0 0 0 0.745098 0 0 0 1 0"/>
<feBlend mode="normal" in2="effect1_dropShadow_1003_34" result="effect2_dropShadow_1003_34"/>
<feColorMatrix in="SourceAlpha" type="matrix" values="0 0 0 0 0 0 0 0 0 0 0 0 0 0 0 0 0 0 127 0" result="hardAlpha"/>
<feOffset/>
<feGaussianBlur stdDeviation="14.28"/>
<feColorMatrix type="matrix" values="0 0 0 0 0.996078 0 0 0 0 0 0 0 0 0 0.745098 0 0 0 1 0"/>
<feBlend mode="normal" in2="effect2_dropShadow_1003_34" result="effect3_dropShadow_1003_34"/>
<feColorMatrix in="SourceAlpha" type="matrix" values="0 0 0 0 0 0 0 0 0 0 0 0 0 0 0 0 0 0 127 0" result="hardAlpha"/>
<feOffset/>
<feGaussianBlur stdDeviation="28.56"/>
<feColorMatrix type="matrix" values="0 0 0 0 0.996078 0 0 0 0 0 0 0 0 0 0.745098 0 0 0 1 0"/>
<feBlend mode="normal" in2="effect3_dropShadow_1003_34" result="effect4_dropShadow_1003_34"/>
<feColorMatrix in="SourceAlpha" type="matrix" values="0 0 0 0 0 0 0 0 0 0 0 0 0 0 0 0 0 0 127 0" result="hardAlpha"/>
<feOffset/>
<feGaussianBlur stdDeviation="48.96"/>
<feColorMatrix type="matrix" values="0 0 0 0 0.996078 0 0 0 0 0 0 0 0 0 0.745098 0 0 0 1 0"/>
<feBlend mode="normal" in2="effect4_dropShadow_1003_34" result="effect5_dropShadow_1003_34"/>
<feColorMatrix in="SourceAlpha" type="matrix" values="0 0 0 0 0 0 0 0 0 0 0 0 0 0 0 0 0 0 127 0" result="hardAlpha"/>
<feOffset/>
<feGaussianBlur stdDeviation="85.68"/>
<feColorMatrix type="matrix" values="0 0 0 0 0.996078 0 0 0 0 0 0 0 0 0 0.745098 0 0 0 1 0"/>
<feBlend mode="normal" in2="effect5_dropShadow_1003_34" result="effect6_dropShadow_1003_34"/>
<feBlend mode="normal" in="SourceGraphic" in2="effect6_dropShadow_1003_34" result="shape"/>
</filter>
<filter id="filter2_dddddd_1003_34" x="52.48" y="222.98" width="285.54" height="262.54" filterUnits="userSpaceOnUse" color-interpolation-filters="sRGB">
<feFlood flood-opacity="0" result="BackgroundImageFix"/>
<feColorMatrix in="SourceAlpha" type="matrix" values="0 0 0 0 0 0 0 0 0 0 0 0 0 0 0 0 0 0 127 0" result="hardAlpha"/>
<feOffset/>
<feGaussianBlur stdDeviation="1.53"/>
<feColorMatrix type="matrix" values="0 0 0 0 0.996078 0 0 0 0 0 0 0 0 0 0.745098 0 0 0 1 0"/>
<feBlend mode="normal" in2="BackgroundImageFix" result="effect1_dropShadow_1003_34"/>
<feColorMatrix in="SourceAlpha" type="matrix" values="0 0 0 0 0 0 0 0 0 0 0 0 0 0 0 0 0 0 127 0" result="hardAlpha"/>
<feOffset/>
<feGaussianBlur stdDeviation="3.06"/>
<feColorMatrix type="matrix" values="0 0 0 0 0.996078 0 0 0 0 0 0 0 0 0 0.745098 0 0 0 1 0"/>
<feBlend mode="normal" in2="effect1_dropShadow_1003_34" result="effect2_dropShadow_1003_34"/>
<feColorMatrix in="SourceAlpha" type="matrix" values="0 0 0 0 0 0 0 0 0 0 0 0 0 0 0 0 0 0 127 0" result="hardAlpha"/>
<feOffset/>
<feGaussianBlur stdDeviation="10.71"/>
<feColorMatrix type="matrix" values="0 0 0 0 0.996078 0 0 0 0 0 0 0 0 0 0.745098 0 0 0 1 0"/>
<feBlend mode="normal" in2="effect2_dropShadow_1003_34" result="effect3_dropShadow_1003_34"/>
<feColorMatrix in="SourceAlpha" type="matrix" values="0 0 0 0 0 0 0 0 0 0 0 0 0 0 0 0 0 0 127 0" result="hardAlpha"/>
<feOffset/>
<feGaussianBlur stdDeviation="21.42"/>
<feColorMatrix type="matrix" values="0 0 0 0 0.996078 0 0 0 0 0 0 0 0 0 0.745098 0 0 0 1 0"/>
<feBlend mode="normal" in2="effect3_dropShadow_1003_34" result="effect4_dropShadow_1003_34"/>
<feColorMatrix in="SourceAlpha" type="matrix" values="0 0 0 0 0 0 0 0 0 0 0 0 0 0 0 0 0 0 127 0" result="hardAlpha"/>
<feOffset/>
<feGaussianBlur stdDeviation="36.72"/>
<feColorMatrix type="matrix" values="0 0 0 0 0.996078 0 0 0 0 0 0 0 0 0 0.745098 0 0 0 1 0"/>
<feBlend mode="normal" in2="effect4_dropShadow_1003_34" result="effect5_dropShadow_1003_34"/>
<feColorMatrix in="SourceAlpha" type="matrix" values="0 0 0 0 0 0 0 0 0 0 0 0 0 0 0 0 0 0 127 0" result="hardAlpha"/>
<feOffset/>
<feGaussianBlur stdDeviation="64.26"/>
<feColorMatrix type="matrix" values="0 0 0 0 0.996078 0 0 0 0 0 0 0 0 0 0.745098 0 0 0 1 0"/>
<feBlend mode="normal" in2="effect5_dropShadow_1003_34" result="effect6_dropShadow_1003_34"/>
<feBlend mode="normal" in="SourceGraphic" in2="effect6_dropShadow_1003_34" result="shape"/>
</filter>
<filter id="filter3_dddddd_1003_34" x="282.3" y="287.3" width="55.9" height="57.4" filterUnits="userSpaceOnUse" color-interpolation-filters="sRGB">
<feFlood flood-opacity="0" result="BackgroundImageFix"/>
<feColorMatrix in="SourceAlpha" type="matrix" values="0 0 0 0 0 0 0 0 0 0 0 0 0 0 0 0 0 0 127 0" result="hardAlpha"/>
<feOffset/>
<feGaussianBlur stdDeviation="0.3"/>
<feColorMatrix type="matrix" values="0 0 0 0 0.996078 0 0 0 0 0 0 0 0 0 0.745098 0 0 0 1 0"/>
<feBlend mode="normal" in2="BackgroundImageFix" result="effect1_dropShadow_1003_34"/>
<feColorMatrix in="SourceAlpha" type="matrix" values="0 0 0 0 0 0 0 0 0 0 0 0 0 0 0 0 0 0 127 0" result="hardAlpha"/>
<feOffset/>
<feGaussianBlur stdDeviation="0.6"/>
<feColorMatrix type="matrix" values="0 0 0 0 0.996078 0 0 0 0 0 0 0 0 0 0.745098 0 0 0 1 0"/>
<feBlend mode="normal" in2="effect1_dropShadow_1003_34" result="effect2_dropShadow_1003_34"/>
<feColorMatrix in="SourceAlpha" type="matrix" values="0 0 0 0 0 0 0 0 0 0 0 0 0 0 0 0 0 0 127 0" result="hardAlpha"/>
<feOffset/>
<feGaussianBlur stdDeviation="2.1"/>
<feColorMatrix type="matrix" values="0 0 0 0 0.996078 0 0 0 0 0 0 0 0 0 0.745098 0 0 0 1 0"/>
<feBlend mode="normal" in2="effect2_dropShadow_1003_34" result="effect3_dropShadow_1003_34"/>
<feColorMatrix in="SourceAlpha" type="matrix" values="0 0 0 0 0 0 0 0 0 0 0 0 0 0 0 0 0 0 127 0" result="hardAlpha"/>
<feOffset/>
<feGaussianBlur stdDeviation="4.2"/>
<feColorMatrix type="matrix" values="0 0 0 0 0.996078 0 0 0 0 0 0 0 0 0 0.745098 0 0 0 1 0"/>
<feBlend mode="normal" in2="effect3_dropShadow_1003_34" result="effect4_dropShadow_1003_34"/>
<feColorMatrix in="SourceAlpha" type="matrix" values="0 0 0 0 0 0 0 0 0 0 0 0 0 0 0 0 0 0 127 0" result="hardAlpha"/>
<feOffset/>
<feGaussianBlur stdDeviation="7.2"/>
<feColorMatrix type="matrix" values="0 0 0 0 0.996078 0 0 0 0 0 0 0 0 0 0.745098 0 0 0 1 0"/>
<feBlend mode="normal" in2="effect4_dropShadow_1003_34" result="effect5_dropShadow_1003_34"/>
<feColorMatrix in="SourceAlpha" type="matrix" values="0 0 0 0 0 0 0 0 0 0 0 0 0 0 0 0 0 0 127 0" result="hardAlpha"/>
<feOffset/>
<feGaussianBlur stdDeviation="12.6"/>
<feColorMatrix type="matrix" values="0 0 0 0 0.996078 0 0 0 0 0 0 0 0 0 0.745098 0 0 0 1 0"/>
<feBlend mode="normal" in2="effect5_dropShadow_1003_34" result="effect6_dropShadow_1003_34"/>
<feBlend mode="normal" in="SourceGraphic" in2="effect6_dropShadow_1003_34" result="shape"/>
</filter>
<filter id="filter4_dddddd_1003_34" x="0.5" y="0.499878" width="758.5" height="700" filterUnits="userSpaceOnUse" color-interpolation-filters="sRGB">
<feFlood flood-opacity="0" result="BackgroundImageFix"/>
<feColorMatrix in="SourceAlpha" type="matrix" values="0 0 0 0 0 0 0 0 0 0 0 0 0 0 0 0 0 0 127 0" result="hardAlpha"/>
<feOffset/>
<feGaussianBlur stdDeviation="15.45"/>
<feColorMatrix type="matrix" values="0 0 0 0 0.996078 0 0 0 0 0 0 0 0 0 0.745098 0 0 0 1 0"/>
<feBlend mode="normal" in2="BackgroundImageFix" result="effect1_dropShadow_1003_34"/>
<feColorMatrix in="SourceAlpha" type="matrix" values="0 0 0 0 0 0 0 0 0 0 0 0 0 0 0 0 0 0 127 0" result="hardAlpha"/>
<feOffset/>
<feGaussianBlur stdDeviation="30.9"/>
<feColorMatrix type="matrix" values="0 0 0 0 0.996078 0 0 0 0 0 0 0 0 0 0.745098 0 0 0 1 0"/>
<feBlend mode="normal" in2="effect1_dropShadow_1003_34" result="effect2_dropShadow_1003_34"/>
<feColorMatrix in="SourceAlpha" type="matrix" values="0 0 0 0 0 0 0 0 0 0 0 0 0 0 0 0 0 0 127 0" result="hardAlpha"/>
<feOffset/>
<feGaussianBlur stdDeviation="108.15"/>
<feColorMatrix type="matrix" values="0 0 0 0 0.996078 0 0 0 0 0 0 0 0 0 0.745098 0 0 0 1 0"/>
<feBlend mode="normal" in2="effect2_dropShadow_1003_34" result="effect3_dropShadow_1003_34"/>
<feColorMatrix in="SourceAlpha" type="matrix" values="0 0 0 0 0 0 0 0 0 0 0 0 0 0 0 0 0 0 127 0" result="hardAlpha"/>
<feOffset/>
<feGaussianBlur stdDeviation="125"/>
<feColorMatrix type="matrix" values="0 0 0 0 0.996078 0 0 0 0 0 0 0 0 0 0.745098 0 0 0 1 0"/>
<feBlend mode="normal" in2="effect3_dropShadow_1003_34" result="effect4_dropShadow_1003_34"/>
<feColorMatrix in="SourceAlpha" type="matrix" values="0 0 0 0 0 0 0 0 0 0 0 0 0 0 0 0 0 0 127 0" result="hardAlpha"/>
<feOffset/>
<feGaussianBlur stdDeviation="125"/>
<feColorMatrix type="matrix" values="0 0 0 0 0.996078 0 0 0 0 0 0 0 0 0 0.745098 0 0 0 1 0"/>
<feBlend mode="normal" in2="effect4_dropShadow_1003_34" result="effect5_dropShadow_1003_34"/>
<feColorMatrix in="SourceAlpha" type="matrix" values="0 0 0 0 0 0 0 0 0 0 0 0 0 0 0 0 0 0 127 0" result="hardAlpha"/>
<feOffset/>
<feGaussianBlur stdDeviation="125"/>
<feColorMatrix type="matrix" values="0 0 0 0 0.996078 0 0 0 0 0 0 0 0 0 0.745098 0 0 0 1 0"/>
<feBlend mode="normal" in2="effect5_dropShadow_1003_34" result="effect6_dropShadow_1003_34"/>
<feBlend mode="normal" in="SourceGraphic" in2="effect6_dropShadow_1003_34" result="shape"/>
</filter>
<filter id="filter5_dddddd_1003_34" x="0.5" y="1" width="758.5" height="699.5" filterUnits="userSpaceOnUse" color-interpolation-filters="sRGB">
<feFlood flood-opacity="0" result="BackgroundImageFix"/>
<feColorMatrix in="SourceAlpha" type="matrix" values="0 0 0 0 0 0 0 0 0 0 0 0 0 0 0 0 0 0 127 0" result="hardAlpha"/>
<feOffset/>
<feGaussianBlur stdDeviation="15.39"/>
<feColorMatrix type="matrix" values="0 0 0 0 0.996078 0 0 0 0 0 0 0 0 0 0.745098 0 0 0 1 0"/>
<feBlend mode="normal" in2="BackgroundImageFix" result="effect1_dropShadow_1003_34"/>
<feColorMatrix in="SourceAlpha" type="matrix" values="0 0 0 0 0 0 0 0 0 0 0 0 0 0 0 0 0 0 127 0" result="hardAlpha"/>
<feOffset/>
<feGaussianBlur stdDeviation="30.78"/>
<feColorMatrix type="matrix" values="0 0 0 0 0.996078 0 0 0 0 0 0 0 0 0 0.745098 0 0 0 1 0"/>
<feBlend mode="normal" in2="effect1_dropShadow_1003_34" result="effect2_dropShadow_1003_34"/>
<feColorMatrix in="SourceAlpha" type="matrix" values="0 0 0 0 0 0 0 0 0 0 0 0 0 0 0 0 0 0 127 0" result="hardAlpha"/>
<feOffset/>
<feGaussianBlur stdDeviation="107.73"/>
<feColorMatrix type="matrix" values="0 0 0 0 0.996078 0 0 0 0 0 0 0 0 0 0.745098 0 0 0 1 0"/>
<feBlend mode="normal" in2="effect2_dropShadow_1003_34" result="effect3_dropShadow_1003_34"/>
<feColorMatrix in="SourceAlpha" type="matrix" values="0 0 0 0 0 0 0 0 0 0 0 0 0 0 0 0 0 0 127 0" result="hardAlpha"/>
<feOffset/>
<feGaussianBlur stdDeviation="125"/>
<feColorMatrix type="matrix" values="0 0 0 0 0.996078 0 0 0 0 0 0 0 0 0 0.745098 0 0 0 1 0"/>
<feBlend mode="normal" in2="effect3_dropShadow_1003_34" result="effect4_dropShadow_1003_34"/>
<feColorMatrix in="SourceAlpha" type="matrix" values="0 0 0 0 0 0 0 0 0 0 0 0 0 0 0 0 0 0 127 0" result="hardAlpha"/>
<feOffset/>
<feGaussianBlur stdDeviation="125"/>
<feColorMatrix type="matrix" values="0 0 0 0 0.996078 0 0 0 0 0 0 0 0 0 0.745098 0 0 0 1 0"/>
<feBlend mode="normal" in2="effect4_dropShadow_1003_34" result="effect5_dropShadow_1003_34"/>
<feColorMatrix in="SourceAlpha" type="matrix" values="0 0 0 0 0 0 0 0 0 0 0 0 0 0 0 0 0 0 127 0" result="hardAlpha"/>
<feOffset/>
<feGaussianBlur stdDeviation="125"/>
<feColorMatrix type="matrix" values="0 0 0 0 0.996078 0 0 0 0 0 0 0 0 0 0.745098 0 0 0 1 0"/>
<feBlend mode="normal" in2="effect5_dropShadow_1003_34" result="effect6_dropShadow_1003_34"/>
<feBlend mode="normal" in="SourceGraphic" in2="effect6_dropShadow_1003_34" result="shape"/>
</filter>
</defs>
</svg>
